<?xml version="1.0" encoding="UTF-8" standalone="no"?>
<svg
   xmlns:dc="http://purl.org/dc/elements/1.1/"
   xmlns:cc="http://creativecommons.org/ns#"
   xmlns:rdf="http://www.w3.org/1999/02/22-rdf-syntax-ns#"
   xmlns:svg="http://www.w3.org/2000/svg"
   xmlns="http://www.w3.org/2000/svg"
   xmlns:sodipodi="http://sodipodi.sourceforge.net/DTD/sodipodi-0.dtd"
   xmlns:inkscape="http://www.inkscape.org/namespaces/inkscape"
   version="1.0"
   width="800.000000pt"
   height="600.000000pt"
   viewBox="0 0 800.000000 600.000000"
   preserveAspectRatio="xMidYMid meet"
   id="svg132"
   sodipodi:docname="numbers.svg"
   inkscape:version="">
  <defs
     id="defs136" />
  <sodipodi:namedview
     pagecolor="#ffffff"
     bordercolor="#666666"
     borderopacity="1"
     objecttolerance="10"
     gridtolerance="10"
     guidetolerance="10"
     inkscape:pageopacity="0"
     inkscape:pageshadow="2"
     inkscape:window-width="1560"
     inkscape:window-height="810"
     id="namedview134"
     showgrid="false"
     inkscape:zoom="0.5"
     inkscape:cx="315.62725"
     inkscape:cy="544.43347"
     inkscape:window-x="20"
     inkscape:window-y="40"
     inkscape:window-maximized="0"
     inkscape:current-layer="g130" />
  <metadata
     id="metadata2">
Created by potrace 1.16, written by Peter Selinger 2001-2019
<rdf:RDF>
  <cc:Work
     rdf:about="">
    <dc:format>image/svg+xml</dc:format>
    <dc:type
       rdf:resource="http://purl.org/dc/dcmitype/StillImage" />
  </cc:Work>
</rdf:RDF>
</metadata>
  <g
     transform="translate(0.000000,600.000000) scale(0.100000,-0.100000)"
     fill="#000000"
     stroke="none"
     id="g130">
    <path
       d="m 1639.0678,5398.7288 c -18,-18 -25,-35 -25,-65 0,-36 2,-40 25,-40 21,0 25,5 25,28 0,68 63,87 68,20 2,-28 -10,-61 -57,-154 -34,-64 -61,-125 -61,-136 0,-16 9,-18 90,-18 83,0 90,1 90,20 0,18 -7,20 -55,20 -30,0 -55,3 -55,7 0,3 25,55 55,114 65,127 72,175 29,208 -38,30 -98,28 -129,-4 z"
       id="path4"
       inkscape:connector-curvature="0" />
    <path
       d="m 2794.0678,5410.7288 c -16,-8 -28,-26 -34,-49 -11,-44 -3,-68 24,-68 15,0 20,7 20,28 0,37 21,65 46,60 16,-3 19,-12 19,-63 0,-58 -1,-60 -27,-63 -36,-4 -40,-42 -5,-42 34,0 47,-19 47,-70 0,-49 -13,-70 -42,-70 -20,0 -38,29 -38,60 0,16 -5,21 -22,18 -33,-4 -37,-57 -6,-92 40,-47 138,-35 158,20 19,48 12,103 -15,130 l -25,25 20,21 c 15,16 20,36 20,74 0,45 -4,56 -26,73 -30,24 -77,27 -114,8 z"
       id="path6"
       inkscape:connector-curvature="0" />
    <path
       d="m 3940.0678,5276.7288 c -31,-82 -56,-154 -56,-160 0,-9 20,-13 65,-13 h 65 v -35 c 0,-31 3,-35 25,-35 22,0 25,4 25,35 0,28 4,35 20,35 13,0 20,7 20,20 0,13 -7,20 -20,20 -19,0 -20,7 -20,140 v 140 h -34 -33 z m 74,-28 v -105 h -36 c -30,0 -35,3 -29,18 3,9 18,56 33,105 15,48 28,87 29,87 2,0 3,-47 3,-105 z"
       id="path8"
       inkscape:connector-curvature="0" />
    <path
       d="m 5054.0678,5323.7288 c 0,-96 1,-100 22,-100 12,0 30,7 40,16 15,14 20,15 33,4 12,-10 15,-30 13,-89 -3,-66 -6,-76 -22,-79 -23,-5 -46,23 -46,55 0,16 -6,23 -19,23 -39,0 -37,-78 2,-105 34,-24 94,-19 122,10 23,22 25,32 25,107 0,100 -14,128 -64,128 -17,0 -37,-5 -44,-12 -9,-9 -12,0 -12,40 v 52 h 60 c 57,0 60,1 60,25 0,25 -1,25 -85,25 h -85 z"
       id="path10"
       inkscape:connector-curvature="0" />
    <path
       d="m 6231.0678,5412.7288 c -34,-20 -47,-72 -47,-187 0,-163 15,-192 104,-192 64,0 86,30 86,120 0,53 -4,73 -21,94 -22,28 -56,34 -90,16 -17,-10 -19,-7 -19,35 0,54 14,85 38,85 25,0 42,-20 42,-48 0,-19 5,-23 23,-20 33,5 35,51 3,83 -27,27 -85,34 -119,14 z m 71,-191 c 7,-7 12,-39 12,-75 0,-50 -4,-65 -16,-70 -32,-12 -49,11 -52,71 -4,74 22,108 56,74 z"
       id="path12"
       inkscape:connector-curvature="0" />
    <path
       d="m 7334.0678,5398.7288 c 0,-24 3,-25 55,-25 41,0 55,-4 55,-14 0,-11 -55,-191 -95,-313 -3,-9 6,-13 28,-13 h 32 l 53,183 c 29,100 53,188 52,195 0,9 -25,12 -90,12 -89,0 -90,0 -90,-25 z"
       id="path14"
       inkscape:connector-curvature="0" />
    <path
       d="m 559.44055,4281.3729 c -45,-23 -56,-117 -18,-159 15,-17 15,-20 -4,-39 -17,-17 -21,-34 -21,-79 0,-49 4,-62 25,-82 34,-32 107,-31 141,1 33,31 35,128 4,159 l -20,20 21,29 c 18,24 21,39 16,76 -2,26 -12,54 -20,62 -19,19 -95,26 -124,12 z m 75,-41 c 13,-13 16,-75 6,-102 -7,-19 -35,-21 -52,-4 -7,7 -12,30 -12,53 0,40 13,65 35,65 6,0 16,-5 23,-12 z m 16,-195 c 5,-21 5,-45 0,-65 -8,-28 -15,-33 -39,-33 -30,0 -30,1 -33,59 -3,63 6,78 43,74 12,-2 23,-15 29,-35 z"
       id="path16"
       inkscape:connector-curvature="0" />
    <path
       d="m 526.40678,1840.8983 c -29,-30 -41,-49 -36,-60 8,-22 13,-21 41,5 l 24,22 -3,-134 c -3,-127 -4,-135 -23,-135 -13,0 -21,-8 -23,-22 -3,-22 0,-23 72,-23 75,0 76,0 76,26 0,20 -4,25 -21,22 -21,-3 -21,-1 -20,170 l 2,172 h -23 c -15,0 -40,-17 -66,-43 z"
       id="path18"
       inkscape:connector-curvature="0" />
    <path
       d="m 714.40678,1865.8983 c -16,-13 -23,-30 -24,-58 -1,-33 2,-39 22,-42 17,-3 22,2 22,18 0,32 18,60 40,60 51,0 43,-55 -30,-200 -33,-66 -60,-127 -60,-135 0,-12 16,-15 90,-15 89,0 90,0 90,25 0,24 -3,25 -56,25 h -56 l 58,108 c 66,124 75,181 35,214 -30,24 -101,24 -131,0 z"
       id="path20"
       inkscape:connector-curvature="0" />
    <path
       d="m 1664.4068,1838.8983 c -37,-38 -41,-46 -30,-60 12,-14 15,-13 37,6 l 23,22 v -135 c 0,-131 -1,-136 -20,-131 -16,4 -20,0 -20,-21 0,-26 1,-26 70,-26 69,0 70,0 70,26 0,21 -4,25 -20,21 -19,-5 -20,0 -20,169 v 174 h -23 c -14,0 -40,-17 -67,-45 z"
       id="path22"
       inkscape:connector-curvature="0" />
    <path
       d="m 1857.4068,1868.8983 c -38,-27 -41,-105 -4,-105 12,0 20,12 27,37 16,66 74,53 74,-18 0,-39 -20,-69 -46,-69 -8,0 -14,-9 -14,-19 0,-14 8,-21 28,-23 25,-3 27,-6 30,-59 2,-42 -1,-59 -13,-69 -24,-20 -48,-1 -59,43 -12,46 -41,51 -51,8 -7,-33 15,-85 40,-95 39,-15 96,-6 120,19 21,20 25,34 25,80 0,45 -4,60 -24,80 l -23,23 20,21 c 31,31 29,117 -2,142 -28,23 -98,25 -128,4 z"
       id="path24"
       inkscape:connector-curvature="0" />
    <path
       d="m 2794.4068,1838.8983 c -37,-38 -41,-46 -30,-60 12,-14 15,-13 37,6 l 23,22 v -135 c 0,-131 -1,-136 -20,-131 -16,4 -20,0 -20,-21 0,-26 1,-26 70,-26 69,0 70,0 70,26 0,21 -4,25 -20,21 -19,-5 -20,0 -20,169 v 174 h -23 c -14,0 -40,-17 -67,-45 z"
       id="path26"
       inkscape:connector-curvature="0" />
    <path
       d="m 3011.4068,1739.8983 c -32,-79 -57,-151 -57,-160 0,-13 12,-16 65,-16 h 65 v -35 c 0,-31 3,-35 25,-35 22,0 25,4 25,35 0,28 4,35 20,35 15,0 20,7 20,25 0,18 -5,25 -20,25 -19,0 -20,7 -20,135 v 135 h -33 -34 z m 75,-26 -3,-100 h -35 c -25,0 -34,4 -31,13 3,6 17,51 33,100 15,48 30,87 33,87 3,0 5,-45 3,-100 z"
       id="path28"
       inkscape:connector-curvature="0" />
    <path
       d="m 3954.4068,1838.8983 c -37,-38 -41,-46 -30,-60 12,-14 15,-13 37,6 l 23,22 v -135 c 0,-131 -1,-136 -20,-131 -16,4 -20,0 -20,-21 0,-26 1,-26 70,-26 68,0 70,1 70,26 0,21 -4,24 -20,19 -19,-6 -20,-2 -20,169 v 176 h -23 c -14,0 -40,-17 -67,-45 z"
       id="path30"
       inkscape:connector-curvature="0" />
    <path
       d="m 4134.4068,1783.8983 c 0,-87 2,-100 17,-100 9,0 25,8 35,17 15,13 23,15 36,7 25,-16 30,-145 7,-164 -25,-21 -49,0 -53,44 -3,32 -6,37 -25,34 -17,-2 -23,-11 -25,-40 -7,-79 94,-121 149,-62 22,23 24,34 24,114 0,115 -18,137 -97,117 -27,-7 -28,-7 -28,38 v 45 h 60 c 57,0 60,1 60,25 0,25 -1,25 -80,25 h -80 z"
       id="path32"
       inkscape:connector-curvature="0" />
    <path
       d="m 5094.4068,1838.8983 c -37,-38 -41,-46 -30,-60 12,-14 15,-13 37,6 l 23,22 v -135 c 0,-131 -1,-136 -20,-131 -16,4 -20,0 -20,-21 0,-26 1,-26 70,-26 68,0 70,1 70,24 0,19 -4,24 -20,21 -19,-4 -20,2 -20,171 v 174 h -23 c -14,0 -40,-17 -67,-45 z"
       id="path34"
       inkscape:connector-curvature="0" />
    <path
       d="m 5289.4068,1858.8983 c -24,-23 -25,-28 -25,-170 0,-142 1,-147 25,-170 33,-34 96,-35 129,-2 43,43 46,166 6,202 -15,13 -31,16 -65,13 l -45,-6 v 34 c 0,18 5,45 10,59 8,21 16,26 37,23 22,-2 29,-9 33,-33 4,-22 11,-30 25,-30 29,0 33,57 6,84 -31,31 -104,29 -136,-4 z m 93,-177 c 16,-16 15,-110 -1,-132 -20,-27 -53,-13 -61,26 -15,75 -3,118 34,118 9,0 21,-5 28,-12 z"
       id="path36"
       inkscape:connector-curvature="0" />
    <path
       d="m 6254.4068,1838.8983 c -37,-38 -41,-46 -30,-60 12,-14 15,-13 37,6 l 23,22 v -136 c 0,-130 -1,-136 -20,-132 -16,3 -20,-2 -20,-21 0,-23 2,-24 70,-24 68,0 70,1 70,26 0,21 -4,24 -20,19 -19,-6 -20,-2 -20,169 v 176 h -23 c -14,0 -40,-17 -67,-45 z"
       id="path38"
       inkscape:connector-curvature="0" />
    <path
       d="m 6404.4068,1858.8983 c 0,-24 3,-25 55,-25 30,0 55,-3 55,-6 0,-4 -22,-77 -50,-164 -27,-87 -50,-160 -50,-164 0,-3 13,-6 30,-6 28,0 30,4 50,73 12,39 37,123 56,186 19,62 34,117 34,122 0,5 -40,9 -90,9 -89,0 -90,0 -90,-25 z"
       id="path40"
       inkscape:connector-curvature="0" />
    <path
       style="stroke-width:0.99999994"
       inkscape:connector-curvature="0"
       d="m 550.31191,5388.0183 c -29,-30 -41,-49 -36,-60 8,-22 13,-21 41,5 l 23.99999,22 -3,-134 c -3,-127 -4,-135 -22.99999,-135 -13,0 -21,-8 -23,-22 -3,-22 0,-23 71.99999,-23 74.99999,0 75.99999,0 75.99999,26 0,20 -4,25 -21,22 -21,-3 -21,-1 -20,170 l 2,172 h -23 c -14.99999,0 -39.99999,-17 -65.99998,-43 z"
       id="path18-3" />
    <path
       style="stroke-width:0.99999994"
       inkscape:connector-curvature="0"
       d="m 1925.9317,3952.2379 c 34,20 47,72 47,187 0,163 -15,192 -104,192 -64,0 -86,-30 -86,-120 0,-53 4,-73 21,-94 22,-28 56,-34 90,-16 17,10 19,7 19,-35 0,-54 -14,-85 -38,-85 -25,0 -42,20 -42,48 0,19 -5,23 -23,20 -33,-5 -35,-51 -3,-83 27,-27 84.9999,-34 119,-14 z m -71,191 c -7,7 -12,39 -12,75 0,50 4,65 16,70 32,12 49,-11 52,-71 4,-74 -22.0001,-108 -56,-74 z"
       id="path12-6" />
    <path
       style="stroke-width:0.13333333"
       d="M 388.50977 225.15625 C 388.05518 225.14173 387.5994 225.16221 387.14648 225.20703 C 386.62266 225.22397 386.09775 225.27793 385.57617 225.35547 C 381.62405 225.08666 378.02341 227.75513 376.23828 231.1582 C 374.02268 235.27374 373.09824 240.17216 373.81445 244.81055 C 373.67524 249.65972 374.01206 254.57586 373.64453 259.375 C 373.29638 262.78894 374.12723 266.25239 375.79492 269.25781 C 375.91977 270.89191 376.42118 272.48011 377.40625 273.83203 C 379.42052 277.0577 383.48553 278.34514 387.11719 277.70117 C 389.99874 277.93025 392.95863 276.63243 394.86328 274.43164 C 395.35308 273.89462 395.78725 273.30302 396.16406 272.67578 C 398.39515 270.21353 399.80726 267.06823 399.73633 263.66797 C 399.07342 256.57301 400.36757 249.37691 399.95703 242.2832 C 400.00036 240.85591 399.96429 239.42694 399.78516 238.01367 C 399.09737 233.40406 397.12922 228.33713 392.70703 226.15234 C 392.13432 225.88041 391.53129 225.67748 390.91406 225.53516 C 390.13154 225.31505 389.32307 225.18217 388.50977 225.15625 z M 386.63086 233.62109 C 386.85775 233.66325 387.0848 233.7248 387.31055 233.81836 C 388.90479 234.42076 390.98933 235.19907 390.58789 237.26758 C 390.78254 239.35454 391.02125 241.45711 391.24609 243.5625 C 391.29299 243.66935 391.34484 243.78562 391.33984 243.9043 C 391.33984 243.9296 391.33991 243.95322 391.33984 243.97852 C 391.33975 244.01042 391.33983 244.04232 391.33984 244.07422 C 391.33984 244.12112 391.33584 244.13248 391.33984 244.17188 C 391.34069 244.18867 391.34094 244.25778 391.33594 244.28125 C 391.33641 244.28225 391.3398 244.29523 391.3418 244.29883 C 391.44894 244.29783 391.52215 244.42838 391.44727 244.625 C 391.48647 244.623 391.51562 244.63003 391.51562 244.67383 L 391.51562 244.69336 C 391.51566 244.72876 391.51562 244.76757 391.51562 244.79297 C 391.51563 244.84787 391.51762 244.90217 391.51562 244.95703 C 391.51554 244.96203 391.51591 244.96746 391.51562 244.97266 C 391.51263 245.06086 391.52148 245.14837 391.52148 245.23633 C 391.53728 245.27453 391.55725 245.31153 391.56055 245.35352 C 391.56155 245.4987 391.57194 245.64414 391.55664 245.78906 C 391.55664 245.79506 391.54862 245.86712 391.54492 245.88672 C 391.54392 245.89172 391.54002 245.89684 391.54102 245.90234 C 391.55582 245.96954 391.60878 246.02796 391.60938 246.09961 C 391.61459 246.11928 391.61852 246.13878 391.62305 246.1582 C 391.62357 246.17512 391.62442 246.19207 391.625 246.20898 C 391.62204 246.21027 391.6177 246.21073 391.61914 246.21289 C 391.62076 246.21569 391.62324 246.21798 391.625 246.2207 C 391.64872 246.89773 391.71195 247.573 391.83398 248.24023 C 391.82321 248.54942 391.84258 248.87987 391.87695 249.21484 C 391.87258 249.21603 391.87263 249.2141 391.86914 249.21484 C 391.86907 249.22484 391.86928 249.23434 391.86914 249.24414 C 391.87164 249.24164 391.87507 249.23817 391.87891 249.23438 C 391.93296 249.74756 392.04719 250.26627 392.22461 250.75977 C 392.22461 250.78837 392.22461 250.81695 392.22461 250.8457 L 392.22461 251.05859 C 392.22462 251.13029 392.22461 251.20174 392.22461 251.27344 L 392.22461 251.55273 L 392.22461 251.77148 L 392.22461 251.95898 L 392.22461 252.16016 L 392.22461 252.33594 C 392.22761 252.36364 392.20383 252.41994 392.17383 252.4707 C 392.17683 252.4837 392.17964 252.49647 392.18164 252.50977 C 392.18764 252.54907 392.17969 252.60377 392.17969 252.64258 C 392.19449 252.75078 392.15793 252.84701 392.11523 252.94336 C 392.11323 252.94736 392.11728 252.95238 392.11328 252.95508 C 392.07248 252.99118 392.02558 253.02078 391.98633 253.05859 C 391.98637 253.05959 391.98628 253.0615 391.98633 253.0625 C 391.99133 253.06237 392.00894 253.05347 392.02344 253.04688 C 392.02644 253.04288 392.02825 253.0379 392.03125 253.0332 C 392.03425 253.0292 392.03611 253.01668 392.03711 253.02148 C 392.04111 253.03548 392.04388 253.05025 392.04688 253.06445 C 392.05387 253.13095 392.04688 253.19689 392.04688 253.26367 C 392.05487 253.32927 392.02694 253.3813 391.99414 253.43164 C 392.11717 257.67331 391.87055 261.89985 390.79688 266.06055 C 390.41717 267.54057 389.88946 269.42915 388.60352 270.33008 C 388.2487 270.33423 387.86871 270.26329 387.45117 270.08008 C 383.77397 268.87881 381.94306 264.83887 381.44141 261.26172 C 380.3792 254.05426 381.45671 246.78268 381.2793 239.54297 C 381.52481 238.47949 381.82369 237.42704 382.24219 236.40039 C 382.31573 236.19831 382.41498 236.00737 382.51758 235.81836 C 383.54292 234.59996 385.07035 233.77828 386.63086 233.62109 z M 383.04297 235.51953 L 383.02148 235.53516 L 383.04297 235.51953 z M 391.05469 244.92188 L 391.03711 244.9707 L 391.05469 244.92188 z M 391.86133 250.95898 C 391.8067 251.26842 391.80906 251.25501 391.86133 250.95898 z M 391.82617 250.99219 L 391.83008 251.05078 L 391.82617 250.99219 z M 391.80664 251.22852 L 391.78516 251.28516 L 391.80664 251.22852 z M 385.17773 251.36328 L 385.18555 251.38477 L 385.17773 251.36328 z M 392.16211 252.4082 C 392.16311 252.4188 392.16597 252.42905 392.16797 252.43945 C 392.16846 252.43645 392.16872 252.43464 392.16992 252.43164 C 392.17792 252.44894 392.16111 252.3996 392.16211 252.4082 z M 392.1543 252.49219 C 392.1374 252.51409 392.12272 252.54378 392.10352 252.54688 C 392.08102 252.55087 392.14034 252.5194 392.15234 252.5 C 392.15334 252.498 392.15314 252.49419 392.1543 252.49219 z M 391.2832 256.70508 L 391.29297 256.76953 L 391.2832 256.70508 z M 397.76562 271.64453 L 397.71289 271.69141 L 397.76562 271.64453 z "
       transform="matrix(7.5000001,0,0,-7.5000001,0,6000)"
       id="path12-6-6" />
    <path
       style="stroke-width:0.99999994"
       inkscape:connector-curvature="0"
       d="m 4604.5515,4262 c -29,-30 -41,-49 -36,-60 8,-22 13,-21 41,5 l 24,22 -3,-134 c -3,-127 -4,-135 -23,-135 -13,0 -21,-8 -23,-22 -3,-22 0,-23 72,-23 75,0 76,0 76,26 0,20 -4,25 -21,22 -21,-3 -21,-1 -20,170 l 2,172 h -23 c -15,0 -40,-17 -66,-43 z"
       id="path18-3-3" />
    <path
       inkscape:connector-curvature="0"
       style="stroke-width:0.99999994"
       d="m 4932.8024,4322.63 c -3.4094,0.1087 -6.8278,-0.045 -10.2247,-0.381 -3.9286,-0.1268 -7.8654,-0.5318 -11.7773,-1.1133 -29.6409,2.016 -56.6457,-17.9975 -70.0342,-43.5205 -16.617,-30.8666 -23.5503,-67.6047 -18.1787,-102.3926 -1.0441,-36.3688 1.4821,-73.2399 -1.2744,-109.2334 -2.6111,-25.6046 3.6203,-51.5804 16.1279,-74.1211 0.9364,-12.2557 4.697,-24.1672 12.085,-34.3066 15.107,-24.1926 45.5946,-33.8484 72.8321,-29.0186 21.6116,-1.7181 43.8108,8.0156 58.0956,24.5215 3.6735,4.0276 6.9298,8.4646 9.7559,13.1689 16.7332,18.4669 27.324,42.0567 26.792,67.5586 -4.9718,53.2122 4.7343,107.183 1.6553,160.3858 0.3247,10.7047 0.053,21.4219 -1.2891,32.0215 -5.1584,34.572 -19.9195,72.574 -53.0859,88.9599 -4.2954,2.0395 -8.8181,3.5615 -13.4473,4.6289 -5.8689,1.6508 -11.9324,2.6474 -18.0322,2.8418 z m -14.0918,-63.4863 c 1.7017,-0.3165 3.4045,-0.7779 5.0977,-1.4796 11.9568,-4.518 27.5908,-10.3553 24.58,-25.8691 1.4599,-15.6522 3.2502,-31.4215 4.9365,-47.2119 0.3518,-0.8014 0.7403,-1.6734 0.7028,-2.5635 0,-0.1898 5e-4,-0.3668 0,-0.5565 -7e-4,-0.2393 -1e-4,-0.4785 0,-0.7178 0,-0.3517 -0.03,-0.4372 0,-0.7327 0.01,-0.126 0.01,-0.6443 -0.03,-0.8203 0,-0.01 0.03,-0.105 0.045,-0.132 0.8035,0.01 1.3526,-0.9716 0.791,-2.4463 0.294,0.015 0.513,-0.038 0.513,-0.366 v -0.1462 c 3e-4,-0.2655 0,-0.5565 0,-0.747 1e-4,-0.4118 0.015,-0.819 0,-1.2305 -6e-4,-0.038 0,-0.078 0,-0.117 -0.023,-0.6615 0.045,-1.3178 0.045,-1.9775 0.1185,-0.2865 0.2685,-0.564 0.2932,-0.8789 0.01,-1.0889 0.086,-2.1797 -0.03,-3.2666 0,-0.045 -0.06,-0.5857 -0.088,-0.7327 -0.01,-0.038 -0.038,-0.076 -0.03,-0.117 0.111,-0.504 0.5085,-0.9422 0.513,-1.4795 0.037,-0.1478 0.068,-0.294 0.1028,-0.4395 0,-0.1268 0.01,-0.2543 0.015,-0.381 -0.023,-0.01 -0.052,-0.015 -0.045,-0.03 0.015,-0.023 0.03,-0.038 0.045,-0.06 0.1777,-5.0778 0.6525,-10.1423 1.5673,-15.1465 -0.081,-2.3189 0.068,-4.7973 0.3225,-7.3096 -0.03,-0.01 -0.03,0.01 -0.06,0 -5e-4,-0.075 0,-0.1462 0,-0.2197 0.015,0.015 0.045,0.045 0.075,0.075 0.405,-3.8489 1.2621,-7.7392 2.5928,-11.4405 0,-0.2145 0,-0.429 0,-0.6442 v -1.5967 c 10e-5,-0.5377 0,-1.0736 0,-1.6114 v -2.0946 -1.6407 -1.4062 -1.5089 -1.3183 c 0.023,-0.2078 -0.156,-0.63 -0.381,-1.0107 0.022,-0.097 0.045,-0.1935 0.06,-0.2933 0.045,-0.2947 -0.015,-0.705 -0.015,-0.996 0.111,-0.8115 -0.1635,-1.5333 -0.4838,-2.2559 -0.015,-0.03 0.015,-0.068 -0.015,-0.088 -0.306,-0.2708 -0.6577,-0.4928 -0.9521,-0.7764 3e-4,-0.01 -4e-4,-0.023 0,-0.03 0.037,0 0.1695,0.068 0.2783,0.117 0.023,0.03 0.037,0.068 0.06,0.1028 0.023,0.03 0.037,0.1237 0.045,0.088 0.03,-0.105 0.053,-0.216 0.075,-0.3225 0.053,-0.4987 0,-0.9933 0,-1.4941 0.06,-0.492 -0.1493,-0.8822 -0.3953,-1.2598 0.9227,-31.8125 -0.9269,-63.5116 -8.9794,-94.7168 -2.8479,-11.1002 -6.8057,-25.2645 -16.4502,-32.0215 -2.6612,-0.03 -5.5111,0.501 -8.6427,1.875 -27.579,9.0095 -41.3108,39.3091 -45.0732,66.1377 -7.9665,54.056 0.1148,108.5928 -1.2158,162.8906 1.8413,7.9761 4.0829,15.8695 7.2217,23.5694 0.5512,1.5156 1.2959,2.9476 2.0654,4.3652 7.6901,9.138 19.1458,15.3006 30.8496,16.4795 z m -26.9092,-14.2383 -0.1612,-0.117 z m 60.0879,-70.5177 -0.132,-0.366 z m 6.0498,-45.2782 c -0.4095,-2.3208 -0.3922,-2.2202 0,0 z m -0.264,-0.249 0.03,-0.4395 z m -0.1462,-1.7725 -0.1613,-0.4245 z m -49.7169,-1.0107 0.06,-0.1612 z m 52.3829,-7.8369 c 0.01,-0.079 0.03,-0.156 0.045,-0.234 0,0.023 0.01,0.037 0.015,0.06 0.06,-0.1297 -0.068,0.24 -0.06,0.1755 z m -0.06,-0.63 c -0.1268,-0.1642 -0.237,-0.387 -0.381,-0.4102 -0.1688,-0.03 0.276,0.2062 0.366,0.3517 0.01,0.015 0.01,0.045 0.015,0.06 z m -6.5333,-31.5967 0.075,-0.483 z m 48.6182,-112.0458 -0.3953,-0.3518 z"
       id="path12-6-6-2" />
    <ellipse
       style="opacity:0.897;fill:#ffffff;fill-opacity:1;stroke:#000000;stroke-width:56.69291687;stroke-linecap:butt;stroke-linejoin:round;stroke-miterlimit:4;stroke-dasharray:56.69291416, 56.69291416;stroke-dashoffset:0;stroke-opacity:1;paint-order:stroke markers fill"
       id="path1963"
       cx="1147.5"
       cy="-2895"
       transform="scale(1,-1)"
       rx="502.5"
       ry="525" />
    <ellipse
       style="opacity:0.897;fill:#ffffff;fill-opacity:1;stroke:#000000;stroke-width:56.69291687;stroke-linecap:butt;stroke-linejoin:round;stroke-miterlimit:4;stroke-dasharray:56.69291416, 56.69291416;stroke-dashoffset:0;stroke-opacity:1;paint-order:stroke markers fill"
       id="path1965"
       cx="1597.5"
       cy="-2415"
       transform="scale(1,-1)"
       rx="82.5"
       ry="60" />
  </g>
</svg>
